<svg width="176" height="39" viewBox="0 0 176 39" fill="none" xmlns="http://www.w3.org/2000/svg">
<g filter="url(#filter0_d_99_359)">
<rect x="2" y="1" width="172" height="35" rx="5" fill="white" fill-opacity="0.8" shape-rendering="crispEdges"/>
<rect x="2.5" y="1.5" width="171" height="34" rx="4.5" stroke="#DCDCDC" shape-rendering="crispEdges"/>
<path d="M27.2912 26V12.9091H32.3026C33.2486 12.9091 34.0348 13.0582 34.6612 13.3565C35.2919 13.6506 35.7628 14.0533 36.0739 14.5646C36.3892 15.076 36.5469 15.6555 36.5469 16.3033C36.5469 16.8359 36.4446 17.2919 36.2401 17.6712C36.0355 18.0462 35.7607 18.3509 35.4155 18.5852C35.0703 18.8196 34.6847 18.9879 34.2585 19.0902V19.218C34.723 19.2436 35.1683 19.3864 35.5945 19.6463C36.0249 19.902 36.3764 20.2642 36.6491 20.733C36.9219 21.2017 37.0582 21.7685 37.0582 22.4332C37.0582 23.1108 36.8942 23.7202 36.5661 24.2614C36.2379 24.7983 35.7436 25.2223 35.0831 25.5334C34.4226 25.8445 33.5916 26 32.5902 26H27.2912ZM29.6626 24.0185H32.2131C33.0739 24.0185 33.6939 23.8544 34.0732 23.5263C34.4567 23.1939 34.6484 22.7678 34.6484 22.2479C34.6484 21.8601 34.5526 21.5107 34.3608 21.1996C34.169 20.8842 33.8963 20.6371 33.5426 20.4581C33.1889 20.2749 32.767 20.1832 32.277 20.1832H29.6626V24.0185ZM29.6626 18.4766H32.0085C32.4176 18.4766 32.7862 18.402 33.1143 18.2528C33.4425 18.0994 33.7003 17.8842 33.8878 17.6072C34.0795 17.326 34.1754 16.9936 34.1754 16.6101C34.1754 16.103 33.9964 15.6854 33.6385 15.3572C33.2848 15.0291 32.7585 14.8651 32.0597 14.8651H29.6626V18.4766ZM42.0943 26.1982C41.4721 26.1982 40.9118 26.0874 40.4132 25.8658C39.9189 25.6399 39.5268 25.3075 39.237 24.8686C38.9515 24.4297 38.8088 23.8885 38.8088 23.245C38.8088 22.6911 38.911 22.233 39.1156 21.8707C39.3201 21.5085 39.5993 21.2188 39.9529 21.0014C40.3066 20.7841 40.7051 20.62 41.1483 20.5092C41.5957 20.3942 42.0581 20.3111 42.5353 20.2599C43.1106 20.2003 43.5772 20.147 43.9352 20.1001C44.2931 20.049 44.5531 19.9723 44.715 19.87C44.8812 19.7635 44.9643 19.5994 44.9643 19.3778V19.3395C44.9643 18.858 44.8216 18.4851 44.536 18.2209C44.2505 17.9567 43.8393 17.8246 43.3024 17.8246C42.7356 17.8246 42.286 17.9482 41.9537 18.1953C41.6255 18.4425 41.4039 18.7344 41.2889 19.071L39.1284 18.7642C39.2988 18.1676 39.5801 17.669 39.9721 17.2685C40.3642 16.8636 40.8436 16.5611 41.4103 16.3608C41.9771 16.1562 42.6035 16.054 43.2896 16.054C43.7626 16.054 44.2335 16.1094 44.7022 16.2202C45.171 16.331 45.5993 16.5142 45.987 16.7699C46.3748 17.0213 46.6859 17.3643 46.9203 17.799C47.1589 18.2337 47.2782 18.777 47.2782 19.429V26H45.0538V24.6513H44.9771C44.8365 24.924 44.6383 25.1797 44.3826 25.4183C44.1312 25.6527 43.8137 25.8423 43.4302 25.9872C43.051 26.1278 42.6056 26.1982 42.0943 26.1982ZM42.6951 24.4979C43.1596 24.4979 43.5623 24.4062 43.9032 24.223C44.2441 24.0355 44.5062 23.7884 44.6895 23.4815C44.877 23.1747 44.9707 22.8402 44.9707 22.478V21.321C44.8983 21.3807 44.7747 21.4361 44.6 21.4872C44.4295 21.5384 44.2377 21.5831 44.0247 21.6214C43.8116 21.6598 43.6007 21.6939 43.3919 21.7237C43.1831 21.7536 43.002 21.7791 42.8485 21.8004C42.5034 21.8473 42.1944 21.924 41.9217 22.0305C41.649 22.1371 41.4338 22.2862 41.2761 22.478C41.1184 22.6655 41.0396 22.9084 41.0396 23.2067C41.0396 23.6328 41.1951 23.9545 41.5062 24.1719C41.8173 24.3892 42.2136 24.4979 42.6951 24.4979ZM54.1376 26.1918C53.1575 26.1918 52.3159 25.9766 51.6127 25.5462C50.9139 25.1158 50.3748 24.5213 49.9956 23.7628C49.6206 23 49.4331 22.1222 49.4331 21.1293C49.4331 20.1321 49.6248 19.2521 50.0083 18.4893C50.3919 17.7223 50.9331 17.1257 51.6319 16.6996C52.335 16.2692 53.166 16.054 54.1248 16.054C54.9217 16.054 55.627 16.201 56.2406 16.495C56.8585 16.7848 57.3507 17.196 57.7172 17.7287C58.0836 18.2571 58.2924 18.875 58.3436 19.5824H56.1319C56.0424 19.1094 55.8294 18.7152 55.4927 18.3999C55.1603 18.0803 54.715 17.9205 54.1568 17.9205C53.6838 17.9205 53.2683 18.0483 52.9103 18.304C52.5524 18.5554 52.2733 18.9176 52.073 19.3906C51.877 19.8636 51.7789 20.4304 51.7789 21.0909C51.7789 21.7599 51.877 22.3352 52.073 22.8168C52.269 23.294 52.5439 23.6626 52.8975 23.9226C53.2555 24.1783 53.6752 24.3061 54.1568 24.3061C54.4977 24.3061 54.8024 24.2422 55.0708 24.1143C55.3436 23.9822 55.5716 23.7926 55.7548 23.5455C55.938 23.2983 56.0637 22.9979 56.1319 22.6442H58.3436C58.2882 23.3388 58.0836 23.9545 57.7299 24.4915C57.3762 25.0241 56.8947 25.4418 56.2853 25.7443C55.676 26.0426 54.96 26.1918 54.1376 26.1918ZM62.603 22.919L62.5966 20.1257H62.9673L66.4957 16.1818H69.1996L64.8594 21.0142H64.38L62.603 22.919ZM60.4936 26V12.9091H62.8075V26H60.4936ZM66.6555 26L63.4595 21.532L65.0192 19.902L69.4233 26H66.6555ZM80.6092 16.1818V17.9716H74.965V16.1818H80.6092ZM76.3585 13.8295H78.6724V23.0469C78.6724 23.358 78.7193 23.5966 78.813 23.7628C78.911 23.9247 79.0389 24.0355 79.1966 24.0952C79.3542 24.1548 79.5289 24.1847 79.7207 24.1847C79.8656 24.1847 79.9977 24.174 80.117 24.1527C80.2406 24.1314 80.3343 24.1122 80.3983 24.0952L80.7882 25.9041C80.6646 25.9467 80.4877 25.9936 80.2576 26.0447C80.0318 26.0959 79.7548 26.1257 79.4267 26.1342C78.8471 26.1513 78.3251 26.0639 77.8606 25.8722C77.3961 25.6761 77.0275 25.3736 76.7548 24.9645C76.4863 24.5554 76.3542 24.044 76.3585 23.4304V13.8295ZM86.9716 26.1918C86.0128 26.1918 85.1818 25.9808 84.4787 25.5589C83.7756 25.1371 83.2301 24.5469 82.8423 23.7884C82.4588 23.0298 82.267 22.1435 82.267 21.1293C82.267 20.1151 82.4588 19.2266 82.8423 18.4638C83.2301 17.701 83.7756 17.1087 84.4787 16.6868C85.1818 16.2649 86.0128 16.054 86.9716 16.054C87.9304 16.054 88.7614 16.2649 89.4645 16.6868C90.1676 17.1087 90.7109 17.701 91.0945 18.4638C91.4822 19.2266 91.6761 20.1151 91.6761 21.1293C91.6761 22.1435 91.4822 23.0298 91.0945 23.7884C90.7109 24.5469 90.1676 25.1371 89.4645 25.5589C88.7614 25.9808 87.9304 26.1918 86.9716 26.1918ZM86.9844 24.3381C87.5043 24.3381 87.9389 24.1953 88.2884 23.9098C88.6378 23.62 88.8977 23.2322 89.0682 22.7464C89.2429 22.2607 89.3303 21.7195 89.3303 21.1229C89.3303 20.522 89.2429 19.9787 89.0682 19.4929C88.8977 19.0028 88.6378 18.6129 88.2884 18.3232C87.9389 18.0334 87.5043 17.8885 86.9844 17.8885C86.4517 17.8885 86.0085 18.0334 85.6548 18.3232C85.3054 18.6129 85.0433 19.0028 84.8686 19.4929C84.6982 19.9787 84.6129 20.522 84.6129 21.1229C84.6129 21.7195 84.6982 22.2607 84.8686 22.7464C85.0433 23.2322 85.3054 23.62 85.6548 23.9098C86.0085 24.1953 86.4517 24.3381 86.9844 24.3381ZM103.508 16.1818V17.9716H97.8635V16.1818H103.508ZM99.2569 13.8295H101.571V23.0469C101.571 23.358 101.618 23.5966 101.711 23.7628C101.809 23.9247 101.937 24.0355 102.095 24.0952C102.253 24.1548 102.427 24.1847 102.619 24.1847C102.764 24.1847 102.896 24.174 103.015 24.1527C103.139 24.1314 103.233 24.1122 103.297 24.0952L103.687 25.9041C103.563 25.9467 103.386 25.9936 103.156 26.0447C102.93 26.0959 102.653 26.1257 102.325 26.1342C101.746 26.1513 101.224 26.0639 100.759 25.8722C100.295 25.6761 99.926 25.3736 99.6532 24.9645C99.3848 24.5554 99.2527 24.044 99.2569 23.4304V13.8295ZM109.87 26.1918C108.911 26.1918 108.08 25.9808 107.377 25.5589C106.674 25.1371 106.129 24.5469 105.741 23.7884C105.357 23.0298 105.165 22.1435 105.165 21.1293C105.165 20.1151 105.357 19.2266 105.741 18.4638C106.129 17.701 106.674 17.1087 107.377 16.6868C108.08 16.2649 108.911 16.054 109.87 16.054C110.829 16.054 111.66 16.2649 112.363 16.6868C113.066 17.1087 113.609 17.701 113.993 18.4638C114.381 19.2266 114.575 20.1151 114.575 21.1293C114.575 22.1435 114.381 23.0298 113.993 23.7884C113.609 24.5469 113.066 25.1371 112.363 25.5589C111.66 25.9808 110.829 26.1918 109.87 26.1918ZM109.883 24.3381C110.403 24.3381 110.837 24.1953 111.187 23.9098C111.536 23.62 111.796 23.2322 111.967 22.7464C112.141 22.2607 112.229 21.7195 112.229 21.1229C112.229 20.522 112.141 19.9787 111.967 19.4929C111.796 19.0028 111.536 18.6129 111.187 18.3232C110.837 18.0334 110.403 17.8885 109.883 17.8885C109.35 17.8885 108.907 18.0334 108.553 18.3232C108.204 18.6129 107.942 19.0028 107.767 19.4929C107.597 19.9787 107.511 20.522 107.511 21.1229C107.511 21.7195 107.597 22.2607 107.767 22.7464C107.942 23.2322 108.204 23.62 108.553 23.9098C108.907 24.1953 109.35 24.3381 109.883 24.3381ZM116.789 29.6818V16.1818H119.064V17.8054H119.198C119.318 17.5668 119.486 17.3132 119.703 17.0447C119.921 16.772 120.215 16.5398 120.585 16.348C120.956 16.152 121.429 16.054 122.004 16.054C122.763 16.054 123.447 16.2479 124.056 16.6357C124.67 17.0192 125.156 17.5881 125.514 18.3423C125.876 19.0923 126.057 20.0128 126.057 21.1037C126.057 22.1818 125.88 23.098 125.526 23.8523C125.173 24.6065 124.691 25.1818 124.082 25.5781C123.472 25.9744 122.782 26.1726 122.011 26.1726C121.448 26.1726 120.982 26.0788 120.611 25.8913C120.24 25.7038 119.942 25.478 119.716 25.2138C119.494 24.9453 119.322 24.6918 119.198 24.4531H119.102V29.6818H116.789ZM119.058 21.0909C119.058 21.7259 119.147 22.282 119.326 22.7592C119.509 23.2365 119.771 23.6094 120.112 23.8778C120.458 24.142 120.875 24.2741 121.365 24.2741C121.877 24.2741 122.305 24.1378 122.65 23.8651C122.995 23.5881 123.255 23.2109 123.43 22.7337C123.609 22.2521 123.698 21.7045 123.698 21.0909C123.698 20.4815 123.611 19.9403 123.436 19.4673C123.262 18.9943 123.002 18.6236 122.656 18.3551C122.311 18.0866 121.881 17.9524 121.365 17.9524C120.871 17.9524 120.451 18.0824 120.106 18.3423C119.761 18.6023 119.499 18.9666 119.32 19.4354C119.145 19.9041 119.058 20.456 119.058 21.0909ZM139.453 26V16.4055L135.829 20.0426L134.499 18.7259L140.405 12.8324L146.299 18.7259L144.995 20.0426L141.358 16.4055V26H139.453Z" fill="#080808"/>
</g>
<defs>
<filter id="filter0_d_99_359" x="0" y="0" width="176" height="39" filterUnits="userSpaceOnUse" color-interpolation-filters="sRGB">
<feFlood flood-opacity="0" result="BackgroundImageFix"/>
<feColorMatrix in="SourceAlpha" type="matrix" values="0 0 0 0 0 0 0 0 0 0 0 0 0 0 0 0 0 0 127 0" result="hardAlpha"/>
<feOffset dy="1"/>
<feGaussianBlur stdDeviation="1"/>
<feComposite in2="hardAlpha" operator="out"/>
<feColorMatrix type="matrix" values="0 0 0 0 0 0 0 0 0 0 0 0 0 0 0 0 0 0 0.05 0"/>
<feBlend mode="normal" in2="BackgroundImageFix" result="effect1_dropShadow_99_359"/>
<feBlend mode="normal" in="SourceGraphic" in2="effect1_dropShadow_99_359" result="shape"/>
</filter>
</defs>
</svg>
