<svg width="20" height="20" viewBox="0 0 20 20" fill="none" xmlns="http://www.w3.org/2000/svg">
<path d="M10 0C15.4998 0 19.9997 4.48975 20 10.0195C20.0054 12.4051 19.158 14.7148 17.6104 16.5303C16.0626 18.3457 13.916 19.5478 11.5596 19.9199V12.9199H13.8896L14.3398 10.0195H11.5596V8.13965C11.5597 7.34977 11.9506 6.58008 13.1904 6.58008H14.4502V4.11035C14.4502 4.11035 13.3097 3.91992 12.2197 3.91992C9.93001 3.92003 8.4406 5.29994 8.44043 7.80957V10.0195H5.90039V12.9199H8.44043V19.9199C3.66043 19.1699 0 15.0195 0 10.0195C0.000254539 4.48975 4.50016 0 10 0Z" fill="#828282"/>
</svg>
