<svg width="18" height="18" viewBox="0 0 18 18" fill="none" xmlns="http://www.w3.org/2000/svg">
<path d="M16 0C16.5304 0 17.039 0.210865 17.4141 0.585938C17.7891 0.96101 18 1.46957 18 2V16C18 16.5304 17.7891 17.039 17.4141 17.4141C17.039 17.7891 16.5304 18 16 18H2C1.46957 18 0.96101 17.7891 0.585938 17.4141C0.210865 17.039 0 16.5304 0 16V2C0 1.46957 0.210865 0.96101 0.585938 0.585938C0.96101 0.210865 1.46957 0 2 0H16ZM2.5 15.5H5.26953V7.12988H2.5V15.5ZM12.2402 6.94043C11.3902 6.94043 10.3999 7.46023 9.91992 8.24023V7.12988H7.12988V15.5H9.91992V10.5703C9.91992 9.80046 10.5398 9.17016 11.3096 9.16992C11.6808 9.16992 12.0373 9.31756 12.2998 9.58008C12.5624 9.84263 12.71 10.199 12.71 10.5703V15.5H15.5V10.2002C15.5 9.33559 15.1563 8.5059 14.5449 7.89453C13.9336 7.28339 13.1046 6.94049 12.2402 6.94043ZM3.87988 2.19043C3.43171 2.19046 3.00148 2.36766 2.68457 2.68457C2.36766 3.00148 2.19046 3.43171 2.19043 3.87988C2.19043 4.80984 2.94994 5.55951 3.87988 5.55957C4.32545 5.55957 4.7533 5.38342 5.06836 5.06836C5.38342 4.7533 5.55957 4.32545 5.55957 3.87988C5.55951 2.94994 4.80984 2.19043 3.87988 2.19043Z" fill="#828282"/>
</svg>
